<?xml version="1.0" standalone="yes"?>
<svg xmlns="http://www.w3.org/2000/svg" width="590" height="579">
<path style="fill:#ffffff; stroke:none;" d="M0 0L0 579L590 579L590 0L0 0z"/>
<path style="fill:#f6c2c0; stroke:none;" d="M277 25C279.052 25.8743 280.747 25.9528 283 26C280.948 25.1257 279.253 25.0472 277 25z"/>
<path style="fill:#e9736d; stroke:none;" d="M283 25.4244C265.002 27.7876 246.789 28.5757 229 32.6512C182.084 43.3997 137.485 67.0364 104.039 102C83.4883 123.484 64.8565 148.725 52.7099 176C18.5748 252.649 20.4691 343.69 62.4275 417C77.4588 443.263 97.2051 466.885 120 486.711C150.737 513.444 187.067 530.809 226 541.706C258.254 550.734 293.839 552.799 327 548.714C452.995 533.191 552.885 421.566 555.985 295C558.21 204.175 513.094 115.129 436 66.054C409.337 49.0811 379.898 37.9789 349 31.8002C334.397 28.88 319.83 26.9318 305 25.9105C297.61 25.4016 290.43 24.4489 283 25.4244z"/>
<path style="fill:#f6c2c0; stroke:none;" d="M301 25C303.613 26.0978 306.164 25.9927 309 26C306.387 24.9023 303.835 25.0073 301 25M267 26C268.506 26.683 269.315 26.8259 271 27C269.494 26.317 268.685 26.1741 267 26M314 26C315.769 26.7789 317.036 26.9124 319 27C317.231 26.2211 315.964 26.0876 314 26M259 27C260.506 27.683 261.315 27.8259 263 28C261.494 27.317 260.685 27.1741 259 27M323 27C324.506 27.683 325.315 27.8259 327 28C325.494 27.317 324.685 27.1741 323 27M251 28C252.506 28.683 253.315 28.8259 255 29C253.494 28.3169 252.685 28.1741 251 28M330 28C331.506 28.683 332.315 28.8259 334 29C332.494 28.3169 331.685 28.1741 330 28M244 29C245.248 29.6848 245.548 29.7488 247 30C245.752 29.3152 245.452 29.2512 244 29M336 29C337.248 29.6848 337.548 29.7488 339 30C337.752 29.3152 337.452 29.2512 336 29M238 30C239.248 30.6848 239.548 30.7488 241 31C239.752 30.3152 239.452 30.2512 238 30M342 30C343.248 30.6848 343.548 30.7488 345 31C343.752 30.3152 343.452 30.2512 342 30M233.667 31.3333C233.222 31.7777 234.278 31.7223 234.333 31.6667C234.778 31.2221 233.722 31.2777 233.667 31.3333M347 31C348.248 31.6848 348.548 31.7488 350 32C348.752 31.3152 348.452 31.2512 347 31M228.667 32.3333C228.222 32.7777 229.278 32.7223 229.333 32.6667C229.778 32.222 228.722 32.2778 228.667 32.3333M352 32C353.248 32.6848 353.548 32.7488 355 33C353.752 32.3152 353.452 32.2512 352 32M224.667 33.3333C224.222 33.7778 225.278 33.7222 225.333 33.6667C225.778 33.2222 224.722 33.2776 224.667 33.3333M357.667 33.3333C357.222 33.778 358.278 33.7221 358.333 33.6667C358.778 33.2224 357.722 33.2776 357.667 33.3333M220.667 34.3333C220.222 34.7778 221.278 34.7222 221.333 34.6667C221.778 34.2221 220.722 34.2778 220.667 34.3333M361 34C362.248 34.6848 362.548 34.7488 364 35C362.752 34.3152 362.452 34.2512 361 34M216.667 35.3333C216.222 35.7778 217.278 35.7223 217.333 35.6667C217.778 35.2222 216.722 35.2776 216.667 35.3333M366.667 35.3333C366.222 35.778 367.278 35.7222 367.333 35.6667C367.778 35.2222 366.722 35.2777 366.667 35.3333M369.667 36.3333C369.222 36.778 370.278 36.7222 370.333 36.6667C370.778 36.2223 369.722 36.2776 369.667 36.3333M373.667 37.3333C373.222 37.7781 374.278 37.722 374.333 37.6667C374.778 37.2223 373.722 37.2776 373.667 37.3333M206.667 38.3333C206.222 38.7778 207.278 38.7222 207.333 38.6667C207.778 38.222 206.722 38.2778 206.667 38.3333M376.667 38.3333C376.222 38.778 377.278 38.7222 377.333 38.6667C377.778 38.2223 376.722 38.2776 376.667 38.3333M379.667 39.3333C379.222 39.778 380.278 39.7222 380.333 39.6667C380.778 39.2223 379.722 39.2777 379.667 39.3333M200.667 40.3333C200.222 40.7777 201.278 40.7223 201.333 40.6667C201.778 40.2221 200.722 40.2778 200.667 40.3333M382.667 40.3333C382.222 40.7779 383.278 40.7222 383.333 40.6667C383.778 40.2222 382.722 40.2777 382.667 40.3333M385.667 41.3333C385.222 41.7779 386.278 41.7222 386.333 41.6667C386.778 41.2223 385.722 41.2776 385.667 41.3333M388 42L389 43L388 42M390.667 43.3333C390.222 43.7779 391.278 43.7222 391.333 43.6667C391.778 43.2224 390.722 43.2775 390.667 43.3333M393.667 44.3333C393.222 44.7779 394.278 44.7222 394.333 44.6667C394.778 44.2222 393.722 44.2777 393.667 44.3333M396 45L397 46L396 45M398 46L399 47L398 46M400.667 47.3333C400.222 47.7779 401.278 47.7222 401.333 47.6667C401.778 47.2224 400.722 47.2776 400.667 47.3333M403 48L404 49L403 48M405 49L406 50L405 49M407 50L408 51L407 50M409 51L410 52L409 51M411 52L412 53L411 52M413 53L414 54L413 53M415 54L416 55L415 54M417 55L418 56L417 55M419 56L420 57L419 56M421 57L422 58L421 57M161 58L162 59L161 58M423 58L424 59L423 58M424.667 59.3333C424.222 59.7779 425.278 59.7222 425.333 59.6667C425.778 59.2223 424.722 59.2776 424.667 59.3333M426 60L427 61L426 60M428 61L429 62L428 61M154 62L155 63L154 62M430 62L431 63L430 62M431 63L432 64L431 63M433 64L434 65L433 64M149 65L150 66L149 65M435 65L436 66L435 65M436 66L437 67L436 66M146 67L147 68L146 67M438 67L439 68L438 67M439 68L440 69L439 68M143 69L144 70L143 69M442 70L443 71L442 70M140 71L141 72L140 71M443 71L444 72L443 71M445 72L446 73L445 72M446 73L447 74L446 73M136 74L137 75L136 74M449 75L450 76L449 75M133 76L134 77L133 76M450 76L451 77L450 76M452 77L453 78L452 77M453 78L454 79L453 78M129 79L130 80L129 79M128 80L129 81L128 80M456 80L457 81L456 80M457 81L458 82L457 81M458 82L459 83L458 82M459 83L460 84L459 83M123 84L124 85L123 84M463 86L464 87L463 86M464 87L465 88L464 87M465 88L466 89L465 88M117 89L118 90L117 89M466 89L467 90L466 89M116 90L117 91L116 90M115 91L116 92L115 91M114 92L115 93L114 92M470 92L471 93L470 92M471 93L472 94L471 93M472 94L473 95L472 94M473 95L474 96L473 95M474 96L475 97L474 96M475 97L476 98L475 97M476 98L477 99L476 98M477 99L478 100L477 99M478 100L479 101L478 100M479 101L480 102L479 101M480 102L481 103L480 102M481 103L482 104L481 103M482 104L483 105L482 104M483 105L484 106L483 105M484 106L485 107L484 106M99 107L100 108L99 107M485 107L486 108L485 107M98 108L99 109L98 108M486 108L487 109L486 108M97 109L98 110L97 109M487 109L488 110L487 109M96 110L97 111L96 110M488 110L489 111L488 110M95 111L96 112L95 111M94 112L95 113L94 112M492 115L493 116L492 115M91 116L92 117L91 116M493 116L494 117L493 116M90 117L91 118L90 117M89 118L90 119L89 118M88 119L89 120L88 119M497 121L498 122L497 121M86 122L87 123L86 122M498 122L499 123L498 122M85 123L86 124L85 123M84 124L85 125L84 124M82 127L83 128L82 127M275 127C276.769 127.779 278.036 127.912 280 128C278.231 127.221 276.964 127.088 275 127z"/>
<path style="fill:#ffffff; stroke:none;" d="M374 200C373.292 191.337 370.152 182.702 366.244 175C342.218 127.649 276.594 112.43 234 143.756C221.916 152.644 213.12 164.481 206.782 178C204.831 182.161 203.348 186.564 202.155 191C201.54 193.287 201.341 196.666 199.411 198.306C197.127 200.249 193.573 198.661 191 198.3C186.241 197.632 180.758 197.622 176 198.3C155.61 201.207 137.633 215.553 130.544 235C119.859 264.313 133.14 298.476 165 306.101C185.429 310.99 209.114 308 230 308L353 308C378.694 308 413.737 313.685 433.711 293.711C458.162 269.26 451.162 223.839 422 206.453C406.561 197.249 391.052 199.268 374 200z"/>
<path style="fill:#f6c2c0; stroke:none;" d="M292 127C294.332 127.985 296.457 127.981 299 128C296.668 127.015 294.543 127.019 292 127M502 127L503 128L502 127M81 128L82 129L81 128M269.667 128.333C269.222 128.778 270.278 128.722 270.333 128.667C270.778 128.222 269.722 128.278 269.667 128.333M301 128C302.506 128.683 303.315 128.826 305 129C303.494 128.317 302.685 128.174 301 128M264.667 129.333C264.222 129.778 265.278 129.722 265.333 129.667C265.778 129.222 264.722 129.278 264.667 129.333M306 129C307.248 129.685 307.548 129.749 309 130C307.752 129.315 307.452 129.251 306 129M310.667 130.333C310.222 130.778 311.278 130.722 311.333 130.667C311.778 130.222 310.722 130.278 310.667 130.333M504 130L505 131L504 130M79 131L80 132L79 131M78 132L79 133L78 132M316.667 132.333C316.222 132.778 317.278 132.722 317.333 132.667C317.778 132.222 316.722 132.278 316.667 132.333M319.667 133.333C319.222 133.778 320.278 133.722 320.333 133.667C320.778 133.222 319.722 133.278 319.667 133.333M322 134L323 135L322 134M507 134L508 135L507 134M76 135L77 136L76 135M324 135L325 136L324 135M326 136L327 137L326 136M328 137L329 138L328 137M509 137L510 138L509 137M74 138L75 139L74 138M330 138L331 139L330 138M73 139L74 140L73 139M240 139L241 140L240 139M332 139L333 140L332 139M511 140L512 141L511 140M72 141L73 142L72 141M237 141L238 142L237 141M335 141L336 142L335 141M71 142L72 143L71 142M337 142L338 143L337 142M234 143L235 144L234 143M338 143L339 144L338 143M70 144L71 145L70 144M69 145L70 146L69 145M341 145L342 146L341 145M230 146L231 147L230 146M342 146L343 147L342 146M515 146L516 147L515 146M68 147L69 148L68 147M229 147L230 148L229 147M67.3333 148.667C67.2777 148.722 67.2222 149.778 67.6667 149.333C67.7221 149.278 67.7779 148.222 67.3333 148.667M228 148L229 149L228 148M346 149L347 150L346 149M66 150L67 151L66 150M347 150L348 151L347 150M348 151L349 152L348 151M518 151L519 152L518 151M65 152L66 153L65 152M349 152L350 153L349 152M64 153L65 154L64 153M350 153L351 154L350 153M351 154L352 155L351 154M63 155L64 156L63 155M352 155L353 156L352 155M220 156L221 157L220 156M353 156L354 157L353 156M62 157L63 158L62 157M219 157L220 158L219 157M522 158L523 159L522 158M61 159L62 160L61 159M60 160L61 161L60 160M216 161L217 162L216 161M357 161L358 162L357 161M59 162L60 163L59 162M215 162L216 163L215 162M58 164L59 165L58 164M214 164L215 165L214 164M213 165L214 166L213 165M360 165L361 166L360 165M57 166L58 167L57 166M212 167L213 168L212 167M56 168L57 169L56 168M211 168L212 169L211 168M362 168L363 169L362 168M55 170L56 171L55 170M210 170L211 171L210 170M54 172L55 173L54 172M209 172L210 173L209 172M53 174L54 175L53 174M208 174L209 175L208 174M207 176L208 177L207 176M367 177L368 178L367 177M51.3333 178.667C51.2778 178.722 51.2222 179.778 51.6667 179.333C51.7222 179.278 51.7778 178.222 51.3333 178.667M206 178L207 179L206 178M50.3333 180.667C50.2777 180.722 50.2223 181.778 50.6667 181.333C50.7222 181.278 50.7778 180.222 50.3333 180.667M205 180L206 181L205 180M533 180L534 181L533 180M204.333 182.667C204.278 182.722 204.222 183.778 204.667 183.333C204.722 183.278 204.778 182.222 204.333 182.667M49 183L50 184L49 183M535.333 184.667C535.278 184.722 535.222 185.778 535.667 185.333C535.722 185.278 535.778 184.222 535.333 184.667M48.3333 185.667C48.2778 185.722 48.2222 186.778 48.6667 186.333C48.7223 186.278 48.7778 185.222 48.3333 185.667M203.333 185.667C203.278 185.722 203.222 186.778 203.667 186.333C203.722 186.278 203.778 185.222 203.333 185.667M371.333 187.667C371.278 187.722 371.222 188.778 371.667 188.333C371.722 188.278 371.778 187.222 371.333 187.667M47 188L48 189L47 188M202.333 188.667C202.278 188.722 202.222 189.778 202.667 189.333C202.722 189.278 202.778 188.222 202.333 188.667M46.3333 190.667C46.2777 190.722 46.2223 191.778 46.6667 191.333C46.7222 191.278 46.7778 190.222 46.3333 190.667M372.333 190.667C372.278 190.722 372.222 191.778 372.667 191.333C372.722 191.278 372.778 190.222 372.333 190.667M201 191L201 194C201.696 192.446 201.696 192.554 201 191M45 193L46 194L45 193M373.333 194.667C373.278 194.722 373.222 195.778 373.667 195.333C373.722 195.278 373.778 194.222 373.333 194.667M44.3333 195.667C44.2777 195.722 44.2223 196.778 44.6667 196.333C44.7223 196.278 44.7778 195.222 44.3333 195.667M200 196L200 199C200.696 197.446 200.696 197.554 200 196M181 197C183.052 197.874 184.747 197.953 187 198C184.948 197.126 183.253 197.047 181 197M43.3333 198.667C43.2778 198.722 43.2222 199.778 43.6667 199.333C43.7223 199.278 43.7778 198.222 43.3333 198.667M173.667 198.333C173.222 198.778 174.278 198.722 174.333 198.667C174.778 198.222 173.722 198.278 173.667 198.333M192 198C193.248 198.685 193.548 198.749 195 199C193.752 198.315 193.452 198.251 192 198M374.333 198.667C374.278 198.722 374.222 199.778 374.667 199.333C374.722 199.278 374.778 198.222 374.333 198.667M384 198C388.724 199.982 394.91 199 400 199C395.276 197.018 389.09 198 384 198M169.667 199.333C169.222 199.778 170.278 199.722 170.333 199.667C170.778 199.222 169.722 199.278 169.667 199.333M196 199C197.248 199.685 197.548 199.749 199 200C197.752 199.315 197.452 199.251 196 199M378.667 199.333C378.222 199.778 379.278 199.722 379.333 199.667C379.778 199.222 378.722 199.278 378.667 199.333M403 199C404.506 199.683 405.315 199.826 407 200C405.494 199.317 404.685 199.174 403 199M408.667 200.333C408.222 200.778 409.278 200.722 409.333 200.667C409.778 200.222 408.722 200.278 408.667 200.333M42.3333 201.667C42.2777 201.722 42.2222 202.778 42.6667 202.333C42.7223 202.278 42.7778 201.222 42.3333 201.667M163.667 201.333C163.222 201.778 164.278 201.722 164.333 201.667C164.778 201.222 163.722 201.278 163.667 201.333M411.667 201.333C411.222 201.778 412.278 201.722 412.333 201.667C412.778 201.222 411.722 201.278 411.667 201.333M414 202L415 203L414 202M416 203L417 204L416 203M542.333 203.667C542.278 203.722 542.222 204.778 542.667 204.333C542.722 204.278 542.778 203.222 542.333 203.667M41.3333 204.667C41.2778 204.722 41.2223 205.778 41.6667 205.333C41.7222 205.278 41.7778 204.222 41.3333 204.667M418 204L419 205L418 204M155 205L156 206L155 205M420 205L421 206L420 205M422 206L423 207L422 206M543.333 206.667C543.278 206.722 543.222 207.778 543.667 207.333C543.722 207.278 543.778 206.222 543.333 206.667M40.3333 207.667C40.2778 207.722 40.2222 208.778 40.6667 208.333C40.7222 208.278 40.7778 207.222 40.3333 207.667M152 207L153 208L152 207M423 207L424 208L423 207M425 208L426 209L425 208M149 209L150 210L149 209M426 209L427 210L426 209M39.3333 210.667C39.2778 210.722 39.2223 211.778 39.6667 211.333C39.7222 211.278 39.7778 210.222 39.3333 210.667M430 212L431 213L430 212M431 213L432 214L431 213M38.3333 214.667C38.2777 214.722 38.2223 215.778 38.6667 215.333C38.7222 215.278 38.7778 214.222 38.3333 214.667M432 214L433 215L432 214M546.333 216.667C546.278 216.722 546.222 217.778 546.667 217.333C546.722 217.278 546.778 216.222 546.333 216.667M37.3333 217.667C37.2777 217.722 37.2223 218.778 37.6667 218.333C37.7222 218.278 37.7778 217.222 37.3333 217.667M140 218L141 219L140 218M139 219L140 220L139 219M436 219L437 220L436 219M138 220L139 221L138 220M437 220L438 221L437 220M547.333 220.667C547.278 220.722 547.222 221.778 547.667 221.333C547.722 221.278 547.778 220.222 547.333 220.667M36.3333 221.667C36.2778 221.722 36.2223 222.778 36.6667 222.333C36.7223 222.278 36.7778 221.222 36.3333 221.667M136 223L137 224L136 223M439 223L440 224L439 223M548.333 224.667C548.278 224.722 548.222 225.778 548.667 225.333C548.722 225.278 548.778 224.222 548.333 224.667M35.3333 225.667C35.2778 225.722 35.2222 226.778 35.6667 226.333C35.7223 226.278 35.7778 225.222 35.3333 225.667M135 225L136 226L135 225M134 226L135 227L134 226M133 228L134 229L133 228M34 229L34 232C34.6961 230.446 34.6961 230.554 34 229M549.333 229.667C549.278 229.722 549.222 230.778 549.667 230.333C549.722 230.278 549.778 229.222 549.333 229.667M132 230L133 231L132 230M131 232L132 233L131 232M550.333 233.667C550.278 233.722 550.222 234.778 550.667 234.333C550.722 234.278 550.778 233.222 550.333 233.667M33 234L33 237C33.6961 235.446 33.6961 235.554 33 234M130 234L131 235L130 234M129.333 237.667C129.278 237.722 129.222 238.778 129.667 238.333C129.722 238.278 129.778 237.222 129.333 237.667M551.333 238.667C551.278 238.722 551.222 239.778 551.667 239.333C551.722 239.278 551.778 238.222 551.333 238.667M32 239L32 242C32.6961 240.446 32.6961 240.554 32 239M446.333 239.667C446.278 239.722 446.222 240.778 446.667 240.333C446.722 240.278 446.778 239.222 446.333 239.667M128.333 240.667C128.278 240.722 128.222 241.778 128.667 241.333C128.722 241.278 128.778 240.222 128.333 240.667M447.333 243.667C447.278 243.722 447.222 244.778 447.667 244.333C447.722 244.278 447.778 243.222 447.333 243.667M127 244L127 247C127.696 245.446 127.696 245.554 127 244M552 244L552 247C552.696 245.446 552.696 245.554 552 244M31 245L31 248C31.6961 246.446 31.6961 246.554 31 245M126 249L126 261C127.512 257.396 127.512 252.604 126 249M448 249L448 255C448.951 252.715 448.951 251.285 448 249M553 250L553 254C553.71 252.24 553.71 251.76 553 250M30 252L30 256C30.7102 254.241 30.7102 253.759 30 252M554 257L554 262C554.83 259.97 554.83 259.03 554 257M448 258L448 264C448.951 261.715 448.951 260.285 448 258M29 261L29 267C29.9511 264.715 29.9511 263.285 29 261M127.333 265.667C127.278 265.722 127.222 266.778 127.667 266.333C127.722 266.278 127.778 265.222 127.333 265.667M447 267L447 270C447.696 268.446 447.696 268.554 447 267M128.333 269.667C128.278 269.722 128.222 270.778 128.667 270.333C128.722 270.278 128.778 269.222 128.333 269.667M555 270L555 277C556.059 274.466 556.059 272.534 555 270M446.333 271.667C446.278 271.722 446.222 272.778 446.667 272.333C446.722 272.278 446.778 271.222 446.333 271.667M445 275L446 276L445 275M28 276L28 297C30.153 291.869 30.153 281.131 28 276M443.333 279.667C443.278 279.722 443.222 280.778 443.667 280.333C443.722 280.278 443.778 279.222 443.333 279.667M441 283L442 284L441 283M134 284L135 285L134 284M440 285L441 286L440 285M439 286L440 287L439 286M136 287L137 288L136 287M438 288L439 289L438 288M437 289L438 290L437 289M436 290L437 291L436 290M139 291L140 292L139 291M435 291L436 292L435 291M140 292L141 293L140 292M141 293L142 294L141 293M142 294L143 295L142 294M143 295L144 296L143 295M431 295L432 296L431 295M430 296L431 297L430 296M146 297L147 298L146 297M429 297L430 298L429 297M147 298L148 299L147 298M426 299L427 300L426 299M150 300L151 301L150 300M555 300L555 307C556.059 304.466 556.059 302.534 555 300M152 301L153 302L152 301M154 302L155 303L154 302M155.667 303.333C155.222 303.778 156.278 303.722 156.333 303.667C156.778 303.222 155.722 303.278 155.667 303.333M158.667 304.333C158.222 304.778 159.278 304.722 159.333 304.667C159.778 304.222 158.722 304.278 158.667 304.333M161.667 305.333C161.222 305.778 162.278 305.722 162.333 305.667C162.778 305.222 161.722 305.278 161.667 305.333M411.667 305.333C411.222 305.778 412.278 305.722 412.333 305.667C412.778 305.222 411.722 305.278 411.667 305.333M164 306C165.248 306.685 165.548 306.749 167 307C165.752 306.315 165.452 306.251 164 306M407.667 306.333C407.222 306.778 408.278 306.722 408.333 306.667C408.778 306.222 407.722 306.278 407.667 306.333M29 307L29 313C29.9511 310.715 29.9511 309.285 29 307M170 307C172.332 307.985 174.457 307.981 177 308C174.668 307.015 172.543 307.019 170 307M399 307C400.506 307.683 401.315 307.826 403 308C401.494 307.317 400.685 307.174 399 307M554 312L554 319C555.06 316.466 555.06 314.534 554 312M30 318L30 323C30.8299 320.97 30.8299 320.03 30 318M553 322L553 326C553.71 324.24 553.71 323.76 553 322M31 327L31 330C31.6961 328.446 31.6961 328.554 31 327M327 329C330.432 330.44 334.3 330 338 330C334.568 328.56 330.7 329 327 329M552 329L552 332C552.696 330.446 552.696 330.554 552 329M243 330C244.248 330.685 244.548 330.749 246 331C244.752 330.315 244.452 330.251 243 330z"/>
<path style="fill:#ffffff; stroke:none;" d="M134 350C124.6 351.021 117.338 359.773 116.185 369C114.544 382.137 118.371 396.508 128.093 405.816C139.614 416.844 156.57 421.98 172 424.13C199.949 428.025 229.767 426.648 256 415.421C269.184 409.779 285.956 399.561 292 386L294 386C298.644 401.636 318.78 411.242 333 416.308C359.478 425.74 387.25 428.571 415 423.75C428.891 421.337 443.143 417.065 453.996 407.699C464.776 398.397 470.576 384.111 468.076 370C466.435 360.733 460.719 351.881 451 350C451.574 356.532 455.096 362.286 453.467 369C449.119 386.917 426.993 385.76 414 379.677C399.202 372.749 389.051 358.771 377 348.289C359.898 333.415 335.236 324.848 313 332.699C304.025 335.868 298.527 342.699 291 348C287.04 336.383 272.836 332.71 262 330.92C239.579 327.215 220.292 336.429 204 351.17C193.427 360.736 184.888 372.082 172 378.88C157.718 386.413 134.29 387.302 130.405 367C129.271 361.076 132.997 355.646 134 350z"/>
<path style="fill:#f6c2c0; stroke:none;" d="M259 330C260.769 330.779 262.036 330.912 264 331C262.231 330.221 260.964 330.088 259 330M320 330C321.248 330.685 321.548 330.749 323 331C321.752 330.315 321.452 330.251 320 330M340 330C341.506 330.683 342.315 330.826 344 331C342.494 330.317 341.685 330.174 340 330M238.667 331.333C238.222 331.778 239.278 331.722 239.333 331.667C239.778 331.222 238.722 331.278 238.667 331.333M265 331C266.506 331.683 267.315 331.826 269 332C267.494 331.317 266.685 331.174 265 331M345 331C346.248 331.685 346.548 331.749 348 332C346.752 331.315 346.452 331.251 345 331M234.667 332.333C234.222 332.778 235.278 332.722 235.333 332.667C235.778 332.222 234.722 332.278 234.667 332.333M270.667 332.333C270.222 332.778 271.278 332.722 271.333 332.667C271.778 332.222 270.722 332.278 270.667 332.333M32 333L32 336C32.6961 334.446 32.6961 334.554 32 333M273.667 333.333C273.222 333.778 274.278 333.722 274.333 333.667C274.778 333.222 273.722 333.278 273.667 333.333M276 334L277 335L276 334M354.667 334.333C354.222 334.778 355.278 334.722 355.333 334.667C355.778 334.222 354.722 334.278 354.667 334.333M278 335L279 336L278 335M357 335L358 336L357 335M551 335L551 338C551.696 336.446 551.696 336.554 551 335M280 336L281 337L280 336M359 336L360 337L359 336M361 337L362 338L361 337M220 338L221 339L220 338M283 338L284 339L283 338M302 338L303 339L302 338M363 338L364 339L363 338M33.3333 339.667C33.2778 339.722 33.2222 340.778 33.6667 340.333C33.7222 340.278 33.7778 339.222 33.3333 339.667M284 339L285 340L284 339M364 339L365 340L364 339M366 340L367 341L366 340M550.333 341.667C550.278 341.722 550.222 342.778 550.667 342.333C550.722 342.278 550.778 341.222 550.333 341.667M214 342L215 343L214 342M369 342L370 343L369 342M296 343L297 344L296 343M34.3333 344.667C34.2778 344.722 34.2222 345.778 34.6667 345.333C34.7222 345.278 34.7778 344.222 34.3333 344.667M295 344L296 345L295 344M372 344L373 345L372 344M210 345L211 346L210 345M290 345L291 346L290 345M294 345L295 346L294 345M373 345L374 346L373 345M549.333 345.667C549.278 345.722 549.222 346.778 549.667 346.333C549.722 346.278 549.778 345.222 549.333 345.667M209 346L210 347L209 346M293 346L294 347L293 346M374 346L375 347L374 346M208 347L209 348L208 347M291.667 347.333C291.222 347.778 292.278 347.722 292.333 347.667C292.778 347.222 291.722 347.278 291.667 347.333M35.3333 348.667C35.2777 348.722 35.2223 349.778 35.6667 349.333C35.7222 349.278 35.7778 348.222 35.3333 348.667M207 348L208 349L207 348M377 348L378 349L377 348M133 349L134 352C134.685 350.752 134.749 350.452 135 349L133 349M378 349L379 350L378 349M450 349L450 351C451.635 350.455 451.455 350.635 452 349L450 349M548.333 349.667C548.278 349.722 548.222 350.778 548.667 350.333C548.722 350.278 548.778 349.222 548.333 349.667M379 350L380 351L379 350M454 350L455 351L454 350M380 351L381 352L380 351M456 351L457 352L456 351M36.3333 352.667C36.2777 352.722 36.2222 353.778 36.6667 353.333C36.7222 353.278 36.7778 352.222 36.3333 352.667M126 352L127 353L126 352M381 352L382 353L381 352M457 352L458 353L457 352M133 353L134 354L133 353M382 353L383 354L382 353M547 353L547 356C547.696 354.446 547.696 354.554 547 353M383 354L384 355L383 354M132.333 355.667C132.278 355.722 132.222 356.778 132.667 356.333C132.722 356.278 132.778 355.222 132.333 355.667M384 355L385 356L384 355M121 356L122 357L121 356M385 356L386 357L385 356M131.333 357.667C131.278 357.722 131.222 358.778 131.667 358.333C131.722 358.278 131.778 357.222 131.333 357.667M386 357L387 358L386 357M546 357L546 360C546.696 358.446 546.696 358.554 546 357M120 358L121 359L120 358M387 358L388 359L387 358M463 358L464 359L463 358M119 359L120 360L119 359M388 359L389 360L388 359M453.333 359.667C453.278 359.722 453.222 360.778 453.667 360.333C453.722 360.278 453.778 359.222 453.333 359.667M389 360L390 361L389 360M118 361L119 362L118 361M130 361L130 369C131.161 366.23 131.161 363.77 130 361M194 361L195 362L194 361M390 361L391 362L390 361M545.333 361.667C545.278 361.722 545.222 362.778 545.667 362.333C545.722 362.278 545.778 361.222 545.333 361.667M193 362L194 363L193 362M391 362L392 363L391 362M39.3333 363.667C39.2777 363.722 39.2222 364.778 39.6667 364.333C39.7222 364.278 39.7778 363.222 39.3333 363.667M117 363L118 364L117 363M192 363L193 364L192 363M392 363L393 364L392 363M393 364L394 365L393 364M544.333 364.667C544.278 364.722 544.222 365.778 544.667 365.333C544.722 365.278 544.778 364.222 544.333 364.667M394 365L395 366L394 365M40.3333 366.667C40.2777 366.722 40.2222 367.778 40.6667 367.333C40.7222 367.278 40.7778 366.222 40.3333 366.667M116 366L117 367L116 366M395 366L396 367L395 366M543.333 367.667C543.278 367.722 543.222 368.778 543.667 368.333C543.722 368.278 543.778 367.222 543.333 367.667M453.333 368.667C453.278 368.722 453.222 369.778 453.667 369.333C453.722 369.278 453.778 368.222 453.333 368.667M115 370L115 379C116.256 376.006 116.256 372.994 115 370M184 370L185 371L184 370M400 370L401 371L400 370M468 370L468 373C468.696 371.446 468.696 371.554 468 370M542.333 370.667C542.278 370.722 542.222 371.778 542.667 371.333C542.722 371.278 542.778 370.222 542.333 370.667M183 371L184 372L183 371M401 371L402 372L401 371M452.333 371.667C452.278 371.722 452.222 372.778 452.667 372.333C452.722 372.278 452.778 371.222 452.333 371.667M402 372L403 373L402 372M451.333 373.667C451.278 373.722 451.222 374.778 451.667 374.333C451.722 374.278 451.778 373.222 451.333 373.667M541.333 373.667C541.278 373.722 541.222 374.778 541.667 374.333C541.722 374.278 541.778 373.222 541.333 373.667M179 374L180 375L179 374M405 374L406 375L405 374M43.3333 375.667C43.2777 375.722 43.2223 376.778 43.6667 376.333C43.7222 376.278 43.7778 375.222 43.3333 375.667M406 375L407 376L406 375M450 375L451 376L450 375M134 376L135 377L134 376M176 376L177 377L176 376M408 376L409 377L408 376M540.333 376.667C540.278 376.722 540.222 377.778 540.667 377.333C540.722 377.278 540.778 376.222 540.333 376.667M135 377L136 378L135 377M409.667 377.333C409.222 377.778 410.278 377.722 410.333 377.667C410.778 377.222 409.722 377.278 409.667 377.333M136 378L137 379L136 378M411 378L412 379L411 378M137 379L138 380L137 379M171 379L172 380L171 379M413 379L414 380L413 379M539.333 379.667C539.278 379.722 539.222 380.778 539.667 380.333C539.722 380.278 539.778 379.222 539.333 379.667M415.667 380.333C415.222 380.778 416.278 380.722 416.333 380.667C416.778 380.222 415.722 380.278 415.667 380.333M445 380L446 381L445 380M468 380L468 384C468.71 382.24 468.71 381.759 468 380M140 381L141 382L140 381M443 381L444 382L443 381M116 382L116 385C116.696 383.446 116.696 383.554 116 382M142.667 382.333C142.222 382.778 143.278 382.722 143.333 382.667C143.778 382.222 142.722 382.278 142.667 382.333M421 382C422.248 382.685 422.548 382.749 424 383C422.752 382.315 422.452 382.251 421 382M538 382L539 383L538 382M46.3333 383.667C46.2777 383.722 46.2223 384.778 46.6667 384.333C46.7222 384.278 46.7778 383.222 46.3333 383.667M145 383C146.506 383.683 147.315 383.826 149 384C147.494 383.317 146.685 383.174 145 383M159.667 383.333C159.222 383.778 160.278 383.722 160.333 383.667C160.778 383.222 159.722 383.278 159.667 383.333M425 383C426.506 383.683 427.315 383.826 429 384C427.494 383.317 426.685 383.174 425 383M435 383C436.506 383.683 437.315 383.826 439 384C437.494 383.317 436.685 383.174 435 383M537.333 384.667C537.278 384.722 537.222 385.778 537.667 385.333C537.722 385.278 537.778 384.222 537.333 384.667M292.667 386.333C292.222 386.778 293.278 386.722 293.333 386.667C293.778 386.222 292.722 386.278 292.667 386.333M467.333 386.667C467.278 386.722 467.222 387.778 467.667 387.333C467.722 387.278 467.778 386.222 467.333 386.667M536 387L537 388L536 387M48 388L49 389L48 388M294 388L295 389L294 388M290 389L291 390L290 389M466.333 389.667C466.278 389.722 466.222 390.778 466.667 390.333C466.722 390.278 466.778 389.222 466.333 389.667M535 389L536 390L535 389M289 390L290 391L289 390M288 391L289 392L288 391M534.333 391.667C534.278 391.722 534.222 392.778 534.667 392.333C534.722 392.278 534.778 391.222 534.333 391.667M465 392L466 393L465 392M464 394L465 395L464 394M533 394L534 395L533 394M299 395L300 396L299 395M300 396L301 397L300 396M463 396L464 397L463 396M532.333 396.667C532.278 396.722 532.222 397.778 532.667 397.333C532.722 397.278 532.778 396.222 532.333 396.667M301 397L302 398L301 397M122 398L123 399L122 398M302 398L303 399L302 398M53.3333 399.667C53.2777 399.722 53.2222 400.778 53.6667 400.333C53.7222 400.278 53.7778 399.222 53.3333 399.667M280 399L281 400L280 399M303 399L304 400L303 399M461 399L462 400L461 399M531 399L532 400L531 399M279 400L280 401L279 400M304 400L305 401L304 400M460 400L461 401L460 400M124 401L125 402L124 401M278 401L279 402L278 401M305 401L306 402L305 401M530 401L531 402L530 401M529.333 402.667C529.278 402.722 529.222 403.778 529.667 403.333C529.722 403.278 529.778 402.222 529.333 402.667M55 403L56 404L55 403M308 403L309 404L308 403M274 404L275 405L274 404M309 404L310 405L309 404M528.333 404.667C528.278 404.722 528.222 405.778 528.667 405.333C528.722 405.278 528.778 404.222 528.333 404.667M56 405L57 406L56 405M311 405L312 406L311 405M456 405L457 406L456 405M312 406L313 407L312 406M455 406L456 407L455 406M527.333 406.667C527.278 406.722 527.222 407.778 527.667 407.333C527.722 407.278 527.778 406.222 527.333 406.667M57 407L58 408L57 407M270 407L271 408L270 407M314 407L315 408L314 407M131 408L132 409L131 408M315 408L316 409L315 408M526 408L527 409L526 408M132 409L133 410L132 409M317 409L318 410L317 409M451 409L452 410L451 409M134 410L135 411L134 410M265 410L266 411L265 410M319 410L320 411L319 410M450 410L451 411L450 410M525 410L526 411L525 410M135 411L136 412L135 411M321 411L322 412L321 411M323 412L324 413L323 412M524 412L525 413L524 412M138 413L139 414L138 413M325 413L326 414L325 413M445 413L446 414L445 413M140 414L141 415L140 414M327.667 414.333C327.222 414.778 328.278 414.722 328.333 414.667C328.778 414.222 327.722 414.278 327.667 414.333M523 414L524 415L523 414M142 415L143 416L142 415M255 415L256 416L255 415M330 415L331 416L330 415M144 416L145 417L144 416M332.667 416.333C332.222 416.778 333.278 416.722 333.333 416.667C333.778 416.222 332.722 416.278 332.667 416.333M522 416L523 417L522 416M146 417L147 418L146 417M335.667 417.333C335.222 417.778 336.278 417.722 336.333 417.667C336.778 417.222 335.722 417.278 335.667 417.333M63 418L64 419L63 418M148.667 418.333C148.222 418.778 149.278 418.722 149.333 418.667C149.778 418.222 148.722 418.278 148.667 418.333M338.667 418.333C338.222 418.778 339.278 418.722 339.333 418.667C339.778 418.222 338.722 418.278 338.667 418.333M521 418L522 419L521 418M151.667 419.333C151.222 419.778 152.278 419.722 152.333 419.667C152.778 419.222 151.722 419.278 151.667 419.333M341.667 419.333C341.222 419.778 342.278 419.722 342.333 419.667C342.778 419.222 341.722 419.278 341.667 419.333M431.667 419.333C431.222 419.778 432.278 419.722 432.333 419.667C432.778 419.222 431.722 419.278 431.667 419.333M520 419L521 420L520 419M154.667 420.333C154.222 420.778 155.278 420.722 155.333 420.667C155.778 420.222 154.722 420.278 154.667 420.333M240.667 420.333C240.222 420.778 241.278 420.722 241.333 420.667C241.778 420.222 240.722 420.278 240.667 420.333M344.667 420.333C344.222 420.778 345.278 420.722 345.333 420.667C345.778 420.222 344.722 420.278 344.667 420.333M428.667 420.333C428.222 420.778 429.278 420.722 429.333 420.667C429.778 420.222 428.722 420.278 428.667 420.333M157.667 421.333C157.222 421.778 158.278 421.722 158.333 421.667C158.778 421.222 157.722 421.278 157.667 421.333M237 421C238.248 421.685 238.548 421.749 240 422C238.752 421.315 238.452 421.251 237 421M348.667 421.333C348.222 421.778 349.278 421.722 349.333 421.667C349.778 421.222 348.722 421.278 348.667 421.333M425 421C426.248 421.685 426.548 421.749 428 422C426.752 421.315 426.452 421.251 425 421M519 421L520 422L519 421M161.667 422.333C161.222 422.778 162.278 422.722 162.333 422.667C162.778 422.222 161.722 422.278 161.667 422.333M233 422C234.248 422.685 234.548 422.749 236 423C234.752 422.315 234.452 422.251 233 422M351 422C352.248 422.685 352.549 422.749 354 423C352.752 422.315 352.452 422.251 351 422M421.667 422.333C421.222 422.778 422.278 422.722 422.333 422.667C422.778 422.222 421.722 422.278 421.667 422.333M165 423C166.248 423.685 166.548 423.749 168 424C166.752 423.315 166.452 423.251 165 423M228.667 423.333C228.222 423.778 229.278 423.722 229.333 423.667C229.778 423.222 228.722 423.278 228.667 423.333M356 423C357.248 423.685 357.548 423.749 359 424C357.752 423.315 357.452 423.251 356 423M416.667 423.333C416.222 423.778 417.278 423.722 417.333 423.667C417.778 423.222 416.722 423.278 416.667 423.333M518 423L519 424L518 423M171 424C172.506 424.683 173.315 424.826 175 425C173.494 424.317 172.685 424.174 171 424M222 424C223.248 424.685 223.548 424.749 225 425C223.752 424.315 223.452 424.251 222 424M361 424C362.506 424.683 363.315 424.826 365 425C363.494 424.317 362.685 424.174 361 424M410 424C411.248 424.685 411.549 424.749 413 425C411.752 424.315 411.452 424.251 410 424M517 424L518 425L517 424M179 425C180.769 425.779 182.036 425.912 184 426C182.231 425.221 180.964 425.088 179 425M213 425C214.769 425.779 216.036 425.912 218 426C216.231 425.221 214.964 425.088 213 425M368 425C369.769 425.779 371.036 425.912 373 426C371.231 425.221 369.964 425.088 368 425M402 425C403.506 425.683 404.315 425.826 406 426C404.494 425.317 403.685 425.174 402 425M68 426L69 427L68 426M193 426C196.432 427.44 200.3 427 204 427C200.568 425.56 196.7 426 193 426M379 426C383.724 427.982 389.91 427 395 427C390.276 425.018 384.09 426 379 426M516 426L517 427L516 426M515 427L516 428L515 427M514 429L515 430L514 429M512 432L513 433L512 432M511 434L512 435L511 434M74 435L75 436L74 435M510 435L511 436L510 435M76 438L77 439L76 438M508 438L509 439L508 438M507 439L508 440L507 439M78 441L79 442L78 441M506 441L507 442L506 441M505 442L506 443L505 442M504 443L505 444L504 443M81 445L82 446L81 445M503 445L504 446L503 445M82 446L83 447L82 446M502 446L503 447L502 446M501 447L502 448L501 447M85 450L86 451L85 450M499 450L500 451L499 450M498 451L499 452L498 451M497 452L498 453L497 452M88 454L89 455L88 454M89 455L90 456L89 455M495 455L496 456L495 455M90 456L91 457L90 456M494 456L495 457L494 456M91 457L92 458L91 457M493 457L494 458L493 457M492 458L493 459L492 458M95 462L96 463L95 462M96 463L97 464L96 463M488 463L489 464L488 463M97 464L98 465L97 464M487 464L488 465L487 464M98 465L99 466L98 465M486 465L487 466L486 465M485 466L486 467L485 466M484 467L485 468L484 467M483 468L484 469L483 468M482 469L483 470L482 469M481 470L482 471L481 470M480 471L481 472L480 471M479 472L480 473L479 472M478 473L479 474L478 473M477 474L478 475L477 474M476 475L477 476L476 475M475 476L476 477L475 476M474 477L475 478L474 477M111 478L112 479L111 478M473 478L474 479L473 478M112 479L113 480L112 479M472 479L473 480L472 479M113 480L114 481L113 480M471 480L472 481L471 480M114 481L115 482L114 481M470 481L471 482L470 481M115 482L116 483L115 482M116 483L117 484L116 483M463 487L464 488L463 487M122 488L123 489L122 488M462 488L463 489L462 488M123 489L124 490L123 489M458 491L459 492L458 491M127 492L128 493L127 492M457 492L458 493L457 492M128 493L129 494L128 493M132 496L133 497L132 496M452 496L453 497L452 496M133 497L134 498L133 497M136 499L137 500L136 499M448 499L449 500L448 499M137 500L138 501L137 500M139 501L140 502L139 501M445 501L446 502L445 501M140 502L141 503L140 502M444 502L445 503L444 502M143 504L144 505L143 504M441 504L442 505L441 504M144 505L145 506L144 505M146 506L147 507L146 506M438 506L439 507L438 506M147 507L148 508L147 507M149 508L150 509L149 508M435 508L436 509L435 508M150.667 509.333C150.222 509.778 151.278 509.722 151.333 509.667C151.778 509.222 150.722 509.278 150.667 509.333M152 510L153 511L152 510M432 510L433 511L432 510M154 511L155 512L154 511M155 512L156 513L155 512M157 513L158 514L157 513M427 513L428 514L427 513M159 514L160 515L159 514M160 515L161 516L160 515M162 516L163 517L162 516M422 516L423 517L422 516M164 517L165 518L164 517M420 517L421 518L420 517M166 518L167 519L166 518M168 519L169 520L168 519M169.667 520.333C169.222 520.778 170.278 520.722 170.333 520.667C170.778 520.222 169.722 520.278 169.667 520.333M173 522L174 523L173 522M175.667 523.333C175.222 523.778 176.278 523.722 176.333 523.667C176.778 523.222 175.722 523.278 175.667 523.333M177.667 524.333C177.222 524.778 178.278 524.722 178.333 524.667C178.778 524.222 177.722 524.278 177.667 524.333M180 525L181 526L180 525M182 526L183 527L182 526M184 527L185 528L184 527M186.667 528.333C186.222 528.778 187.278 528.722 187.333 528.667C187.778 528.222 186.722 528.278 186.667 528.333M188.667 529.333C188.222 529.778 189.278 529.722 189.333 529.667C189.778 529.222 188.722 529.278 188.667 529.333M396 529L397 530L396 529M191 530L192 531L191 530M193.667 531.333C193.222 531.778 194.278 531.722 194.333 531.667C194.778 531.222 193.722 531.278 193.667 531.333M199 533L200 534L199 533M201.667 534.333C201.222 534.778 202.278 534.722 202.333 534.667C202.778 534.222 201.722 534.278 201.667 534.333M204.667 535.333C204.222 535.778 205.278 535.722 205.333 535.667C205.778 535.222 204.722 535.278 204.667 535.333M381.667 535.333C381.222 535.778 382.278 535.722 382.333 535.667C382.778 535.222 381.722 535.278 381.667 535.333M209 537C210.248 537.685 210.548 537.749 212 538C210.752 537.315 210.452 537.251 209 537M213.667 538.333C213.222 538.778 214.278 538.722 214.333 538.667C214.778 538.222 213.722 538.278 213.667 538.333M216 539C217.248 539.685 217.548 539.749 219 540C217.752 539.315 217.452 539.251 216 539M369.667 539.333C369.222 539.778 370.278 539.722 370.333 539.667C370.778 539.222 369.722 539.278 369.667 539.333M220.667 540.333C220.222 540.778 221.278 540.722 221.333 540.667C221.778 540.222 220.722 540.278 220.667 540.333M366.667 540.333C366.222 540.778 367.278 540.722 367.333 540.667C367.778 540.222 366.722 540.278 366.667 540.333M223 541C224.248 541.685 224.548 541.749 226 542C224.752 541.315 224.452 541.251 223 541M362.667 541.333C362.222 541.778 363.278 541.722 363.333 541.667C363.778 541.222 362.722 541.278 362.667 541.333M227.667 542.333C227.222 542.778 228.278 542.722 228.333 542.667C228.778 542.222 227.722 542.278 227.667 542.333M231 543C232.248 543.685 232.548 543.749 234 544C232.752 543.315 232.452 543.251 231 543M355.667 543.333C355.222 543.778 356.278 543.722 356.333 543.667C356.778 543.222 355.722 543.278 355.667 543.333M235 544C236.506 544.683 237.315 544.826 239 545C237.494 544.317 236.685 544.174 235 544M350 544C351.248 544.685 351.548 544.749 353 545C351.752 544.315 351.452 544.251 350 544M240 545C241.506 545.683 242.315 545.826 244 546C242.494 545.317 241.685 545.174 240 545M346.667 545.333C346.222 545.778 347.278 545.722 347.333 545.667C347.778 545.222 346.722 545.278 346.667 545.333M245 546C246.248 546.685 246.548 546.749 248 547C246.752 546.315 246.452 546.251 245 546M341.667 546.333C341.222 546.778 342.278 546.722 342.333 546.667C342.778 546.222 341.722 546.278 341.667 546.333M250 547C251.506 547.683 252.315 547.826 254 548C252.494 547.317 251.685 547.174 250 547M334 547C335.248 547.685 335.548 547.749 337 548C335.752 547.315 335.452 547.251 334 547M258 548C259.769 548.779 261.036 548.912 263 549C261.231 548.221 259.964 548.088 258 548M328 548C329.248 548.685 329.548 548.749 331 549C329.752 548.315 329.452 548.251 328 548M265 549C267.052 549.874 268.747 549.953 271 550C268.948 549.126 267.253 549.047 265 549M317 549C318.769 549.779 320.036 549.912 322 550C320.231 549.221 318.964 549.088 317 549M279 550C281.613 551.098 284.165 550.993 287 551C284.387 549.902 281.836 550.007 279 550M291 550C296.715 552.398 304.831 551 311 551C305.285 548.602 297.169 550 291 550z"/>
</svg>
