<?xml version="1.0" standalone="yes"?>
<svg xmlns="http://www.w3.org/2000/svg" width="1024" height="1024">
<path style="fill:#ffffff; stroke:none;" d="M0 0L0 1024L1024 1024L1024 0L0 0z"/>
<path style="fill:#FA7275; stroke:none;" d="M491 141.424C477.22 143.235 463.633 144.413 450 147.424C414.672 155.227 380.773 170.678 352 192.654C325.027 213.255 302.478 238.929 285 268C269.86 293.182 259.392 321.212 253.6 350C247.64 379.626 247.26 411.093 251.289 441C262.583 524.845 318.708 599.984 394 637.63C440.975 661.117 495.02 670.181 547 663.714C583.802 659.135 619.59 645.978 651 626.424C682.533 606.793 709.873 580.576 730.974 550C794.655 457.729 789.8 330.747 722.116 242C704.37 218.732 682.501 198.338 658 182.344C632.692 165.824 603.661 153.58 574 147.6C547.448 142.248 518.121 137.862 491 141.424z"/>
<path style="fill:#ffffff; stroke:none;" d="M420 315C376.175 301.108 334.382 346.153 349.345 389C351.514 395.211 354.8 401.065 359.184 405.996C363.809 411.197 369.69 415.564 376 418.51C386.433 423.38 396.781 423 408 423L443 423L585 423C608.297 423 634.233 426.841 652.83 409.56C677.658 386.489 672.58 343.538 646 323.924C630.649 312.597 613.127 311.26 595 315C591.991 300.421 586.036 286.586 576.535 275C546.459 238.322 490.959 230.524 453 259.503C444.116 266.285 437.154 274.443 431.4 284C425.695 293.477 421.483 303.989 420 315M512 463C507.292 453.931 497.572 449.091 488 446.63C468.652 441.655 447.331 446.55 432 459.326C418.01 470.984 407.661 486.399 391 494.73C376.136 502.162 351.931 501.768 350.39 480C350.003 474.533 353.213 469.919 355 465L354 464C326.138 472.275 333.134 509.254 351 523.331C367.034 535.964 387.225 539.734 407 541.089C445.396 543.721 489.258 534.021 513 501C520.132 515.988 538.024 525.922 553 531.575C577.576 540.851 603.065 543.746 629 540.13C645.228 537.868 662.446 532.9 674.999 521.816C688.285 510.084 694.296 489.633 683.895 474C680.472 468.855 676.127 465.11 670 464C671.58 470.972 675.293 476.485 673.467 484C668.968 502.513 646.082 500.774 633 494.191C618.525 486.907 608.935 473.755 597 463.286C578.87 447.384 553.216 438.241 530 448.901C522.902 452.16 517.445 457.559 512 463z"/>
<path style="fill:#131414; stroke:none;" d="M608 842L633 842L633 803C633 794.336 632.393 785.265 635.563 777C640.214 764.877 655.27 758.767 665.826 767.558C673.236 773.729 673.999 784.091 674 793L674 842L699 842L699 793C699 783.807 700.151 773.854 697.251 765C691.111 746.259 670.548 737.602 652 743.043C644.212 745.328 639.003 749.87 633 755L633 703L616 703.001C613.791 703.016 610.583 702.639 609.028 704.603C607.088 707.052 608 712.09 608 715L608 741L608 842z"/>
<path style="fill:#FA7275; stroke:none;" d="M633 704L633 736C633 742.239 632.223 748.988 634 755C635.668 744.313 634 731.898 634 721C634 715.65 635.085 708.969 633 704M330 719L330 742C332.284 736.557 332.284 724.443 330 719z"/>
<path style="fill:#131414; stroke:none;" d="M331 719L331 744L315 744L315 765L331 765C329.305 772.12 330 779.719 330 787C330 801.851 327.087 821.271 336.637 833.96C346.924 847.627 372.021 846.187 386 840C384.253 833.787 382.827 827.403 382 821C376.397 822.156 370.697 823.983 365 822.196C357.712 819.911 355.421 813.911 354.428 807C352.479 793.43 354 778.704 354 765L383 765L383 744L354 744L354 719L331 719z"/>
<path style="fill:#FA7275; stroke:none;" d="M263 741C265.613 742.098 268.165 741.993 271 742C268.387 740.902 265.836 741.007 263 741M661 741C663.052 741.874 664.747 741.953 667 742C664.948 741.126 663.253 741.047 661 741M760 741C761.506 741.683 762.315 741.826 764 742C762.494 741.317 761.685 741.174 760 741z"/>
<path style="fill:#131414; stroke:none;" d="M235 812C230.887 817.844 225.009 822.431 222 829C240.07 841.942 260.864 848.174 283 842.079C301.517 836.981 312.755 815.626 302.633 798C294.691 784.168 277.668 784.273 264 780.87C259.013 779.628 250.603 776.695 251.567 770C253.551 756.22 274.354 761.352 282 765.518C284.627 766.949 287.796 770.148 290.996 769.887C296.655 769.424 303.021 758.675 305 754C289.991 743.883 271.111 738.564 253 742.899C234.863 747.24 221.579 764.093 228.714 783C233.854 796.623 249.28 799.836 262 802.4C267.701 803.549 274.33 804.395 278.772 808.532C286.438 815.674 277.995 824.224 270 824.906C255.447 826.147 247.19 817.425 235 812z"/>
<path style="fill:#FA7275; stroke:none;" d="M278 742L279 743L278 742M430 742L431 743L430 742z"/>
<path style="fill:#131414; stroke:none;" d="M400 769C404.876 770.587 414.599 776.082 419.625 774.303C423.294 773.005 425.711 767.896 429.001 765.703C438.21 759.562 453.363 761.309 458.427 772.001C463.408 782.519 447.614 782.2 441 783.13C429.966 784.682 417.536 786.377 408.001 792.549C392.294 802.715 391.699 828.339 408.004 838.532C424.921 849.106 446.642 844.415 461 832L461 842L485 842L485 791C485 778.588 485.555 766.368 477.471 756.004C458.602 731.814 407.266 737.608 400 769z"/>
<path style="fill:#FA7275; stroke:none;" d="M540 742L541 743L540 742z"/>
<path style="fill:#131414; stroke:none;" d="M594 816C587.086 814.009 580.914 809.991 574 808C570.446 812.664 566.409 817.52 561 820.08C549.37 825.585 534.75 819.422 529.518 808C523.758 795.423 526.141 778.218 537.004 769.34C544.686 763.062 555.686 762.303 564 767.853C567.357 770.094 570.237 775.151 574.17 776.211C579.477 777.643 590.327 771.463 595 769C580.764 738.907 537.527 731.971 514.09 756.04C499.964 770.548 497.598 794.335 503.749 813C512.239 838.763 543.499 849.892 568 841.644C579.218 837.868 591.791 828.239 594 816z"/>
<path style="fill:#FA7275; stroke:none;" d="M561 742L562 743L561 742M672 742L673 743L672 742M752 742L753 743L752 742z"/>
<path style="fill:#131414; stroke:none;" d="M740 800C757.004 800 773.951 799 791 799C794.938 799 805.254 800.829 807.972 797.397C809.466 795.51 808.999 792.234 809 790C809.003 782.858 808.018 775.676 805.384 769C795.02 742.727 761.953 735.118 738 747.273C710.373 761.292 706.26 806.361 725.468 828.961C733.451 838.354 746.793 843.85 759 843.996C772.891 844.162 786.249 842.709 796.96 832.816C799.531 830.441 805.761 824.416 803.839 820.394C802.699 818.008 799.205 817.126 797 816.139C794.217 814.893 790.372 812.057 787.17 812.816C782.388 813.95 778.933 820.033 774 821.867C757 828.189 742.295 817.03 740 800z"/>
<path style="fill:#FA7275; stroke:none;" d="M772 742L773 743L772 742M250 743L251 744L250 743M283 743L284 744L283 743M457 743L458 744L457 743M650 743L651 744L650 743M676 743L677 744L676 743M747 743L748 744L747 743M247 744L248 745L247 744M286 744L287 745L286 744M422 744L423 745L422 744M460 744L461 745L460 744M744 744L745 745L744 744M289 745L290 746L289 745M463 745L464 746L463 745M571 745L572 746L571 745M645 745L646 746L645 745M782 745L783 746L782 745M417 746L418 747L417 746M465 746L466 747L465 746M573 746L574 747L573 746M739 746L740 747L739 746M415 747L416 748L415 747M575 747L576 748L575 747M684 747L685 748L684 747M737 747L738 748L737 747M786 747L787 748L786 747M239 748L240 749L239 748M640 748L641 749L640 748M412 749L413 750L412 749M470 749L471 750L470 749M522 749L523 750L522 749M299 750L300 751L299 750M519 751L520 752L519 751M581 751L582 752L581 751M731 751L732 752L731 751M792 751L793 752L792 751M302 752L303 753L302 752z"/>
<path style="fill:#ffffff; stroke:none;" d="M633 754L634 755L633 754z"/>
<path style="fill:#FA7275; stroke:none;" d="M231 756L232 757L231 756M404 757L405 758L404 757M478 757L479 758L478 757M587 757L588 758L587 757M302 758L303 759L302 758M694 758L695 759L694 758M724 758L725 759L724 758M799 758L800 759L799 758M510 760L511 761L510 760M695 760L696 761L695 760M259 761L260 762L259 761M271 761L272 762L271 761M590 761L591 762L590 761M757 761L758 762L757 761z"/>
<path style="fill:#ffffff; stroke:none;" d="M741 783L784 783C783.187 776.966 781.606 770.563 776.895 766.34C762.312 753.268 741.816 765.145 741 783z"/>
<path style="fill:#FA7275; stroke:none;" d="M767 761L768 762L767 761M801 761L802 762L801 761M445 762L446 763L445 762M770 762L771 763L770 762M401 763L402 764L401 763M650 763L651 764L650 763M657 763L658 764L657 763M280 764L281 765L280 764M297 764L298 765L297 764M546 764L547 765L546 764M592 764L593 765L592 764M774 764L775 765L774 764M282 765L283 766L282 765M330.333 765.667C330.278 765.722 330.222 766.778 330.667 766.333C330.722 766.278 330.778 765.222 330.333 765.667M354 765L355 766L354 765M644 765L645 766L644 765M663 765L664 766L663 765M227 766L228 767L227 766M400 766L401 767L400 766M506 766L507 767L506 766M540 766L541 767L540 766M562 766L563 767L562 766M719 766L720 767L719 766M747 766L748 767L747 766M666 767L667 768L666 767M746 767L747 768L746 767M505 768L506 769L505 768M667 768L668 769L667 768M401 769L402 770L401 769M457 769L458 770L457 769M805 769L806 770L805 769M292 770L293 771L292 770M504 770L505 771L504 770M717 771L718 772L717 771M410 772L411 773L410 772M484 772L485 773L484 772M586 772L587 773L586 772M637 772L638 773L637 772M670 772L671 773L670 772M251 773L252 774L251 773M413 773L414 774L413 773M503 773L504 774L503 773M416 774L417 775L416 774M459 774L460 775L459 774M581 774L582 775L581 774M716 774L717 775L716 774M742 774L743 775L742 774M419 775L420 776L419 775M699 775L699 841C701.189 835.784 700 828.619 700 823L700 791C700 785.92 700.981 779.72 699 775M782 775L783 776L782 775M807 775L808 776L807 775M253 776L254 777L253 776M502 776L503 777L502 776M576 776L577 777L576 776M635 776L636 777L635 776M529 777L530 778L529 777M715 778L716 779L715 778M258 779L259 780L258 779M783 779L784 780L783 779M457 780L458 781L457 780M808.333 780.667C808.278 780.722 808.222 781.778 808.667 781.333C808.722 781.278 808.778 780.222 808.333 780.667M451 781L452 782L451 781M501 781L502 782L501 781M228 782L229 783L228 782M271 782L272 783L271 782M444.667 782.333C444.222 782.778 445.278 782.722 445.333 782.667C445.778 782.222 444.722 782.278 444.667 782.333M673 782L674 783L673 782M277 783L278 784L277 783M438 783L439 784L438 783M714.333 783.667C714.278 783.722 714.222 784.778 714.667 784.333C714.722 784.278 714.778 783.222 714.333 783.667M432 784L433 785L432 784M285 785L286 786L285 785M427 785L428 786L427 785M633 785L633 842C634.769 837.785 634 832.535 634 828L634 800C634 795.191 634.875 789.469 633 785M288 786L289 787L288 786M419 787L420 788L419 787M416 788L417 789L416 788M232 789L233 790L232 789M235 792L236 793L235 792M405 794L406 795L405 794M302 797L303 798L302 797z"/>
<path style="fill:#ffffff; stroke:none;" d="M461 797C451.275 797.201 437.617 798.638 429.005 803.417C423.509 806.467 420.411 812.885 423.009 818.957C428.757 832.389 451.124 824.972 457.146 815.996C460.988 810.269 459.476 803.4 461 797z"/>
<path style="fill:#FA7275; stroke:none;" d="M448 798L449 799L448 798M460 798L460 807C461.256 804.006 461.256 800.994 460 798M303 799L304 800L303 799M400 799L401 800L400 799M442 799L443 800L442 799M756 799C758.89 800.213 761.874 799.998 765 800C762.11 798.787 759.126 799.002 756 799M253 800L254 801L253 800M437 800L438 801L437 800M257 801L258 802L257 801M433 801L434 802L433 801M262 802L263 803L262 802M267 803L268 804L267 803M740 803L741 804L740 803M271 804L272 805L271 804M354 804L354 808C354.71 806.24 354.71 805.76 354 804M274 805L275 806L274 805M305 805L306 806L305 805M715 807L716 808L715 807M279 808L280 809L279 808M396 808L397 809L396 808M502 808L503 809L502 808M529 808L530 809L529 808M280 809L281 810L280 809M422 810L423 811L422 810M530 810L531 811L530 810M572 810L573 811L572 810M580 810L581 811L580 810M742 810L743 811L742 810M582 811L583 812L582 811M716 811L717 812L716 811M743 812L744 813L743 812M234 813L235 814L234 813M532 813L533 814L532 813M533 814L534 815L533 814M589 814L590 815L589 814M784 814L785 815L784 814M240 815L241 816L240 815M457 815L458 816L457 815M591 815L592 816L591 815M745 815L746 816L745 815M795 815L796 816L795 815M330 816L330 819C330.696 817.446 330.696 817.554 330 816M356 816L357 817L356 816M535 816L536 817L535 816M797 816L798 817L797 816M594 817L595 818L594 817M718 817L719 818L718 817M281 818L282 819L281 818M422 818L423 819L422 818M748 818L749 819L748 818M780 818L781 819L780 818M246 819L247 820L246 819M305 819L306 820L305 819M593 819L594 820L593 819M719 819L720 820L719 819M804 819L805 820L804 819M396 820L397 821L396 820M423 820L424 821L423 820M751 820L752 821L751 820M777 820L778 821L777 820M805 820L806 821L805 820M250 821L251 822L250 821M279 821L280 822L279 821M379 821L380 822L379 821M720 821L721 822L720 821M753 821L754 822L753 821M775 821L776 822L775 821M226 822L227 823L226 822M331 822L332 823L331 822M374.667 822.333C374.222 822.778 375.278 822.722 375.333 822.667C375.778 822.222 374.722 822.278 374.667 822.333M772 822L773 823L772 822M225 823L226 824L225 823M276 823L277 824L276 823M760 823C762.331 823.984 764.457 823.981 767 824C764.668 823.015 762.543 823.019 760 823M260 824L261 825L260 824M273 824L274 825L273 824M803 824L804 825L803 824M303 825L304 826L303 825M432 825L433 826L432 825M442 825L443 826L442 825M511 826L512 827L511 826M398 827L399 828L398 827M724 827L725 828L724 827M801 827L802 828L801 827M333 828L334 829L333 828M399 829L400 830L399 829M586 829L587 830L586 829M224 830L225 831L224 830M334 830L335 831L334 830M585 830L586 831L585 830M584 831L585 832L584 831M401 832L402 833L401 832M583 832L584 833L583 832M228 833L229 834L228 833M518 833L519 834L518 833M730 833L731 834L730 833M384 834L385 835L384 834M456 835L457 836L456 835M793 835L794 836L793 835M734 836L735 837L734 836M406 837L407 838L406 837M524 837L525 838L524 837M790 837L791 838L790 837M291 838L292 839L291 838M341 838L342 839L341 838M409 839L410 840L409 839M450 839L451 840L450 839M528 839L529 840L528 839M241 840L242 841L241 840M287 840L288 841L287 840M385 840L386 841L385 840M411 840L412 841L411 840M448 840L449 841L448 840M530 840L531 841L530 840M742 840L743 841L742 840M244 841L245 842L244 841M382 841L383 842L382 841M413 841L414 842L413 841M446 841L447 842L446 841M533 841L534 842L533 841M568 841L569 842L568 841M248 842L249 843L248 842M281 842L282 843L281 842M416 842L417 843L416 842M443 842L444 843L443 842M536 842L537 843L536 842M565 842L566 843L565 842M748 842L749 843L748 842M778 842L779 843L778 842M252 843L253 844L252 843M276 843L277 844L276 843M353.667 843.333C353.222 843.778 354.278 843.722 354.333 843.667C354.778 843.222 353.722 843.278 353.667 843.333M373 843L374 844L373 843M419 843L420 844L419 843M439 843L440 844L439 843M540 843L541 844L540 843M561 843L562 844L561 843M752 843L753 844L752 843M774 843L775 844L774 843M424 844C426.613 845.098 429.165 844.993 432 845C429.387 843.902 426.835 844.007 424 844M546 844C548.89 845.213 551.874 844.998 555 845C552.11 843.787 549.126 844.002 546 844M760 844C762.331 844.984 764.457 844.981 767 845C764.668 844.015 762.543 844.019 760 844z"/>
</svg>
