<?xml version="1.0" standalone="yes"?>
<svg xmlns="http://www.w3.org/2000/svg" width="513" height="513">
<path style="fill:#fb7375; stroke:none;" d="M234 0.424377C229.686 0.990845 225.279 0.630981 221 1.32483C182.412 7.58249 144.298 21.0333 112 43.4352C82.475 63.914 57.4278 89.5269 38.3194 120C-8.27415 194.305 -13.308 292.446 25.9691 371C43.0074 405.077 67.2481 434.785 97 458.551C118.847 476.003 144.59 490.092 171 499.305C210.389 513.045 253.789 516.557 295 510.715C330.376 505.699 363.593 492.505 394 473.997C418.959 458.805 441.539 438.105 459.349 415C477.578 391.351 492.05 364.431 501.255 336C533.462 236.518 500.464 122.654 419 56.8048C391.282 34.3997 359.231 18.2269 325 8.57947C302.888 2.34766 280.888 0 258 0C250.075 0 241.867 -0.608582 234 0.424377z"/>
<path style="fill:#fffdfd; stroke:none;" d="M165 168C150.27 166.534 136.91 164.423 123 171.914C91.2456 189.017 79.242 235.05 106.09 261.91C124.238 280.065 151.477 277 175 277L313 277C329.948 277 347.145 277.854 364 276.169C369.903 275.579 376.218 275.328 381.83 273.164C407.906 263.11 419.661 232.955 411.652 207C405.262 186.293 387.881 170.14 366 167.289C360.529 166.577 354.502 166.724 349 167.09C346.644 167.246 343.602 168.275 341.43 166.933C339.171 165.538 338.756 162.334 338.116 160C336.887 155.522 335.201 151.199 333.219 147C327.346 134.56 319.014 123.277 308 114.899C264.605 81.8897 199.376 91.6277 173.756 142C169.524 150.32 166.202 158.689 165 168z"/>
<path style="fill:#fffdfd; stroke:none;" d="M100 318C89.5585 318.57 82.3095 328.217 80.4676 338C78.0793 350.685 84.2299 365.829 93.1343 374.696C104.966 386.479 122.839 391.429 139 393.166C167.774 396.258 198.921 395.928 225.039 381.776C236.383 375.63 250.293 368.253 256 356C260.669 358.385 263.304 363.215 266.925 366.946C271.795 371.963 277.858 376.453 284.039 379.742C290.324 383.085 297.293 384.75 304 387.004C334.261 397.173 370.671 399.051 400.83 387.051C416.253 380.915 429.422 369.582 433.402 353C436.75 339.054 430.449 320.788 415 318C416.269 323.486 419.317 329.262 418.493 335C415.783 353.874 393.918 354.511 380 348.475C365.421 342.152 355.528 328.467 344 318.174C326.5 302.548 301.111 292.257 278 300.695C269.28 303.879 263.418 310.795 256 316C252.113 306.05 240.616 302.101 231 299.769C212.217 295.213 191.896 300.046 177 312.443C163.786 323.44 153.62 338.498 138 346.475C123.905 353.672 98.8599 356.699 96.1852 335C95.3975 328.61 98.3035 323.891 100 318z"/>
</svg>
